<?xml version="1.0" encoding="UTF-8" standalone="no"?>
<!-- Created with Inkscape (http://www.inkscape.org/) -->

<svg
   version="1.1"
   id="svg1"
   width="448.37866"
   height="76.12133"
   viewBox="0 0 448.37866 76.12133"
   xmlns="http://www.w3.org/2000/svg"
   xmlns:svg="http://www.w3.org/2000/svg">
  <defs
     id="defs1" />
  <g
     id="g1">
    <path
       id="path1"
       d="m -113.38724,0 c 0,15.6557 -12.69108,28.3468 -28.3468,28.3468 -15.65572,0 -28.34682,-12.6911 -28.34682,-28.3468 0,-15.6557 12.6911,-28.3468 28.34682,-28.3468 15.65572,0 28.3468,12.6911 28.3468,28.3468 z"
       style="fill:none;stroke:#000000;stroke-width:0.3985;stroke-linecap:butt;stroke-linejoin:miter;stroke-miterlimit:10;stroke-dasharray:none;stroke-opacity:1"
       transform="matrix(1.3333333,0,0,-1.3333333,227.03733,38.06)" />
    <path
       id="path2"
       d="M 3.4816094,-3.8679453 2.2042656,-4.1726328 c -0.6210937,-0.1523438 -1.0078125,-0.6914063 -1.0078125,-1.265625 0,-0.703125 0.5390625,-1.3007813 1.3125,-1.3007813 1.6640625,0 1.8867188,1.6289063 1.9453125,2.0742188 0.011719,0.058594 0.011719,0.1171875 0.1171875,0.1171875 0.1289063,0 0.1289063,-0.046875 0.1289063,-0.234375 v -2.0039063 c 0,-0.1640625 0,-0.234375 -0.1054688,-0.234375 -0.070312,0 -0.082031,0.011719 -0.1523437,0.1289063 l -0.3515625,0.5625 c -0.2929688,-0.28125 -0.703125,-0.6914063 -1.59375,-0.6914063 -1.1015625,0 -1.93359378,0.8789063 -1.93359378,1.9335938 0,0.8203125 0.52734378,1.546875 1.30078128,1.8164062 0.1054687,0.046875 0.6210937,0.1640625 1.3125,0.328125 0.2695312,0.070312 0.5742187,0.140625 0.84375,0.515625 0.2109375,0.2578125 0.3164062,0.5859375 0.3164062,0.9140625 0,0.70312504 -0.5039062,1.41796879 -1.3359375,1.41796879 -0.2929687,0 -1.0429687,-0.046875 -1.5703125,-0.5390625 C 0.84489062,-1.1609141 0.82145312,-1.8054453 0.80973437,-2.1570078 c -0.0117188,-0.1054688 -0.09375,-0.1054688 -0.1171875,-0.1054688 -0.12890625,0 -0.12890625,0.070312 -0.12890625,0.2460938 v 1.99218749 c 0,0.17578125 0,0.24609375 0.10546875,0.24609375 0.0703125,0 0.0820313,-0.0234375 0.15234375,-0.12890625 0,-0.01171875 0.0234375,-0.046875 0.35156248,-0.57421875 0.3164063,0.33984375 0.9492188,0.703125 1.8398438,0.703125 1.1601562,0 1.9570312,-0.984375 1.9570312,-2.07421874 0,-0.9960938 -0.65625,-1.8164063 -1.4882812,-2.015625 z m 5.9443359,3.08203124 v 0.890625 L 10.867352,-7.578125e-4 V -0.30544531 c -0.703125,0 -0.785157,-0.0703125 -0.785157,-0.5625 V -4.4070078 l -1.4531247,0.1171875 v 0.3046875 c 0.6914063,0 0.7734375,0.070312 0.7734375,0.5625 v 1.7695312 c 0,0.86718754 -0.4804687,1.54687504 -1.2070312,1.54687504 -0.8320313,0 -0.8789063,-0.46875 -0.8789063,-0.99609374 v -3.3046875 l -1.4648437,0.1171875 v 0.3046875 c 0.7851562,0 0.7851562,0.035156 0.7851562,0.9140625 v 1.5 c 0,0.77343749 0,1.67578124 1.5117188,1.67578124 0.5507812,0 0.9960937,-0.26953125 1.2773437,-0.890625 z M 12.171062,-3.4226328 v 2.66015624 c 0,0.45703125 -0.117187,0.45703125 -0.785156,0.45703125 v 0.3046874975 c 0.351563,-0.0117187475 0.855469,-0.0351562475 1.125,-0.0351562475 0.257813,0 0.785156,0.0234375 1.113281,0.0351562475 V -0.30544531 c -0.65625,0 -0.773437,0 -0.773437,-0.45703125 V -2.5906016 c 0,-1.03125 0.714844,-1.59375 1.347656,-1.59375 0.621094,0 0.738281,0.5390625 0.738281,1.1015625 v 2.32031254 c 0,0.45703125 -0.117187,0.45703125 -0.773437,0.45703125 v 0.3046874975 c 0.339844,-0.0117187475 0.855469,-0.0351562475 1.125,-0.0351562475 0.257812,0 0.773437,0.0234375 1.113281,0.0351562475 V -0.30544531 c -0.515625,0 -0.773437,0 -0.785156,-0.3046875 V -2.5085703 c 0,-0.8554688 0,-1.171875 -0.304688,-1.5234375 -0.140625,-0.1757813 -0.46875,-0.375 -1.042968,-0.375 -0.726563,0 -1.195313,0.4335937 -1.476563,1.0546875 v -1.0546875 l -1.40625,0.1171875 v 0.3046875 c 0.703125,0 0.785156,0.070312 0.785156,0.5625 z m 0,0"
       style="fill:#000000;fill-opacity:1;fill-rule:nonzero;stroke:none"
       aria-label="Sun"
       transform="matrix(1.3333333,0,0,1.3333333,26.990667,42.598667)" />
    <path
       id="path3"
       d="m -36.85094,0 c 0,10.95894 -8.88374,19.84267 -19.84268,19.84267 -10.95894,0 -19.84267,-8.88373 -19.84267,-19.84267 0,-10.95894 8.88373,-19.84267 19.84267,-19.84267 10.95894,0 19.84268,8.88373 19.84268,19.84267 z"
       style="fill:none;stroke:#000000;stroke-width:0.3985;stroke-linecap:butt;stroke-linejoin:miter;stroke-miterlimit:10;stroke-dasharray:none;stroke-opacity:1"
       transform="matrix(1.3333333,0,0,-1.3333333,227.03733,38.06)" />
    <path
       id="path4"
       d="M 5.8004219,-6.7741953 H 0.32776563 v 0.3046875 h 0.234375 c 0.77343747,0 0.79687497,0.1171875 0.79687497,0.46875 v 5.22656249 c 0,0.3515625 -0.023437,0.46875 -0.79687497,0.46875 h -0.234375 V -7.578125e-4 C 0.67932813,-0.03591406 1.4527656,-0.03591406 1.8394844,-0.03591406 c 0.4101562,0 1.3125,0 1.6757812,0.0351562475 V -0.30544531 h -0.328125 c -0.9492187,0 -0.9492187,-0.12890625 -0.9492187,-0.48046875 V -3.2351328 h 0.8554687 c 0.9609375,0 1.0546875,0.3164062 1.0546875,1.1601562 H 4.4058906 V -4.7116953 H 4.1480781 c 0,0.8320312 -0.09375,1.1601562 -1.0546875,1.1601562 H 2.2379219 v -2.5195312 c 0,-0.328125 0.023437,-0.3984375 0.4921875,-0.3984375 h 1.1953125 c 1.4882812,0 1.7460937,0.5625 1.8984375,1.9335937 h 0.2578125 z m 3.1933594,6.01171874 c 0.035156,0.3984375 0.3046875,0.8203125 0.7734375,0.8203125 0.2109375,0 0.8203122,-0.140625 0.8203122,-0.94921875 V -1.4421641 h -0.246093 v 0.55078129 c 0,0.5859375 -0.246094,0.64453125 -0.3632817,0.64453125 -0.328125,0 -0.3632813,-0.45703125 -0.3632813,-0.50390625 V -2.7429453 c 0,-0.4101563 0,-0.8085938 -0.3632812,-1.171875 -0.3867188,-0.3867188 -0.8789063,-0.5507813 -1.359375,-0.5507813 -0.8203125,0 -1.5117188,0.46875 -1.5117188,1.125 0,0.3046875 0.1992188,0.46875 0.4570313,0.46875 0.28125,0 0.46875,-0.1992187 0.46875,-0.4570312 0,-0.1171875 -0.058594,-0.4453125 -0.515625,-0.4570313 0.2695312,-0.3515625 0.7617187,-0.4570312 1.078125,-0.4570312 0.4921875,0 1.0546875,0.3867187 1.0546875,1.2773437 v 0.3632813 c -0.5039063,0.035156 -1.2070313,0.058594 -1.828125,0.3632812 -0.75,0.3398438 -0.9960938,0.8554688 -0.9960938,1.28906254 0,0.80859375 0.9609375,1.0546875 1.59375,1.0546875 0.65625,0 1.1132813,-0.3984375 1.3007813,-0.8671875 z M 8.9234688,-2.3913828 v 0.9960937 c 0,0.94921879 -0.7148438,1.28906254 -1.1601563,1.28906254 -0.4921875,0 -0.9023437,-0.3515625 -0.9023437,-0.85546875 0,-0.53906249 0.421875,-1.37109379 2.0625,-1.42968749 z m 3.3984372,-0.9140625 v -1.1015625 l -1.382812,0.1171875 v 0.3046875 c 0.691406,0 0.773437,0.070312 0.773437,0.5625 v 2.66015624 c 0,0.45703125 -0.105468,0.45703125 -0.773437,0.45703125 V -7.578125e-4 C 11.325813,-0.01247656 11.794563,-0.03591406 12.075813,-0.03591406 c 0.398437,0 0.867187,0 1.265625,0.0351562475 V -0.30544531 H 13.1305 c -0.738281,0 -0.761719,-0.1171875 -0.761719,-0.46875 V -2.3093516 c 0,-0.984375 0.421875,-1.875 1.183594,-1.875 0.05859,0 0.08203,0 0.105469,0.011719 -0.03516,0.011719 -0.234375,0.1289062 -0.234375,0.3867187 0,0.28125 0.210937,0.4335938 0.433594,0.4335938 0.175781,0 0.421875,-0.1289063 0.421875,-0.4453125 0,-0.3164063 -0.304688,-0.609375 -0.726563,-0.609375 -0.738281,0 -1.089844,0.6679687 -1.230469,1.1015623 z m 0,0"
       style="fill:#000000;fill-opacity:1;fill-rule:nonzero;stroke:none"
       aria-label="Far"
       transform="matrix(1.3333333,0,0,1.3333333,141.74267,42.598667)" />
    <path
       id="path5"
       d="m 39.68535,0 c 0,6.26218 -5.07637,11.33855 -11.33855,11.33855 -6.26217,0 -11.33854,-5.07637 -11.33854,-11.33855 0,-6.26218 5.07637,-11.33855 11.33854,-11.33855 6.26218,0 11.33855,5.07637 11.33855,11.33855 z"
       style="fill:none;stroke:#000000;stroke-width:0.3985;stroke-linecap:butt;stroke-linejoin:miter;stroke-miterlimit:10;stroke-dasharray:none;stroke-opacity:1"
       transform="matrix(1.3333333,0,0,-1.3333333,227.03733,38.06)" />
    <path
       id="path6"
       d="m 2.3080156,-6.6804453 c -0.082031,-0.1171875 -0.09375,-0.1289063 -0.28125,-0.1289063 H 0.32754687 v 0.3164063 h 0.29296875 c 0.140625,0 0.33984375,0.011719 0.49218748,0.011719 0.234375,0.035156 0.2460938,0.046875 0.2460938,0.234375 v 5.203125 c 0,0.26953129 0,0.73828129 -1.03125003,0.73828129 V -7.578125e-4 C 0.67910937,-0.01247656 1.1595781,-0.03591406 1.4994219,-0.03591406 c 0.328125,0 0.8085937,0.0234375 1.1601562,0.0351562475 V -0.30544531 c -1.03125,0 -1.03125,-0.46875 -1.03125,-0.73828129 v -5.1796875 c 0.058594,0.046875 0.070312,0.058594 0.1054688,0.1171875 l 4.0664062,5.97656254 c 0.082031,0.1171875 0.09375,0.1289062475 0.1640625,0.1289062475 0.140625,0 0.140625,-0.0703124975 0.140625,-0.2578124975 V -5.7546641 c 0,-0.2695312 0,-0.7382812 1.03125,-0.7382812 v -0.3164063 c -0.3515625,0.011719 -0.84375,0.035156 -1.171875,0.035156 -0.328125,0 -0.8203125,-0.023437 -1.1601562,-0.035156 v 0.3164063 c 1.0195312,0 1.0195312,0.46875 1.0195312,0.7382812 v 4.2539063 z m 6.2783203,4.171875 c 0.058594,-1.4882813 0.9023438,-1.734375 1.2421875,-1.734375 1.0195316,0 1.1249996,1.3476562 1.1249996,1.734375 z m -0.011719,0.2109375 H 11.36368 c 0.210937,0 0.246093,0 0.246093,-0.2109375 0,-0.984375 -0.539062,-1.9570313 -1.7812496,-1.9570313 -1.1601562,0 -2.0742187,1.03125 -2.0742187,2.2734375 0,1.33593754 1.0429687,2.29687504 2.1914062,2.29687504 1.2187501,0 1.6640621,-1.1015625 1.6640621,-1.28906254 0,-0.1054687 -0.08203,-0.1171875 -0.128906,-0.1171875 -0.09375,0 -0.117187,0.058594 -0.128906,0.140625 -0.351563,1.01953129 -1.253906,1.01953129 -1.347656,1.01953129 -0.5039066,0 -0.9023441,-0.29296875 -1.1250003,-0.66796875 C 8.5746172,-1.2898203 8.5746172,-1.9460703 8.5746169,-2.2976328 Z m 6.6416021,1.53515624 c 0.03516,0.3984375 0.304687,0.8203125 0.773437,0.8203125 0.210938,0 0.820313,-0.140625 0.820313,-0.94921875 V -1.4421641 h -0.246094 v 0.55078129 c 0,0.5859375 -0.246094,0.64453125 -0.363281,0.64453125 -0.328125,0 -0.363282,-0.45703125 -0.363282,-0.50390625 V -2.7429453 c 0,-0.4101563 0,-0.8085938 -0.363281,-1.171875 -0.386719,-0.3867188 -0.878906,-0.5507813 -1.359375,-0.5507813 -0.820312,0 -1.511719,0.46875 -1.511719,1.125 0,0.3046875 0.199219,0.46875 0.457032,0.46875 0.28125,0 0.46875,-0.1992187 0.46875,-0.4570312 0,-0.1171875 -0.05859,-0.4453125 -0.515625,-0.4570313 0.269531,-0.3515625 0.761718,-0.4570312 1.078125,-0.4570312 0.492187,0 1.054687,0.3867187 1.054687,1.2773437 v 0.3632813 c -0.503906,0.035156 -1.207031,0.058594 -1.828125,0.3632812 -0.75,0.3398438 -0.996094,0.8554688 -0.996094,1.28906254 0,0.80859375 0.960938,1.0546875 1.59375,1.0546875 0.65625,0 1.113282,-0.3984375 1.300782,-0.8671875 z m -0.07031,-1.62890624 v 0.9960937 c 0,0.94921879 -0.714844,1.28906254 -1.160156,1.28906254 -0.492188,0 -0.902344,-0.3515625 -0.902344,-0.85546875 0,-0.53906249 0.421875,-1.37109379 2.0625,-1.42968749 z m 3.398438,-0.9140625 v -1.1015625 l -1.382813,0.1171875 v 0.3046875 c 0.691406,0 0.773438,0.070312 0.773438,0.5625 v 2.66015624 c 0,0.45703125 -0.105469,0.45703125 -0.773438,0.45703125 V -7.578125e-4 C 17.54825,-0.01247656 18.017,-0.03591406 18.29825,-0.03591406 c 0.398437,0 0.867187,0 1.265625,0.0351562475 V -0.30544531 h -0.210938 c -0.738281,0 -0.761718,-0.1171875 -0.761718,-0.46875 V -2.3093516 c 0,-0.984375 0.421875,-1.875 1.183593,-1.875 0.05859,0 0.08203,0 0.105469,0.011719 -0.03516,0.011719 -0.234375,0.1289062 -0.234375,0.3867187 0,0.28125 0.210938,0.4335938 0.433594,0.4335938 0.175781,0 0.421875,-0.1289063 0.421875,-0.4453125 0,-0.3164063 -0.304688,-0.609375 -0.726563,-0.609375 -0.738281,0 -1.089843,0.6679687 -1.230468,1.1015625 z m 0,0"
       style="fill:#000000;fill-opacity:1;fill-rule:nonzero;stroke:none"
       aria-label="Near"
       transform="matrix(1.3333333,0,0,1.3333333,250.97733,42.598667)" />
    <path
       id="path7"
       d="M -141.73404,28.3468 141.73404,0"
       style="fill:none;stroke:#000000;stroke-width:0.3985;stroke-linecap:butt;stroke-linejoin:miter;stroke-miterlimit:10;stroke-dasharray:none;stroke-opacity:1"
       transform="matrix(1.3333333,0,0,-1.3333333,227.03733,38.06)" />
    <path
       id="path8"
       d="M -141.73404,-28.3468 141.73404,0"
       style="fill:none;stroke:#000000;stroke-width:0.3985;stroke-linecap:butt;stroke-linejoin:miter;stroke-miterlimit:10;stroke-dasharray:none;stroke-opacity:1"
       transform="matrix(1.3333333,0,0,-1.3333333,227.03733,38.06)" />
    <path
       id="path9"
       d="M 2.4026641,-6.5866953 C 2.3089141,-6.8093516 2.2854766,-6.8093516 2.0511016,-6.8093516 H 0.36360156 v 0.3164063 h 0.24609375 c 0.76171879,0 0.78515629,0.1054687 0.78515629,0.46875 v 4.9804687 c 0,0.26953129 0,0.73828129 -1.03125004,0.73828129 V -7.578125e-4 C 0.71516406,-0.01247656 1.2073516,-0.03591406 1.5354766,-0.03591406 c 0.328125,0 0.8203125,0.0234375 1.1601562,0.0351562475 V -0.30544531 c -1.0195312,0 -1.0195312,-0.46875 -1.0195312,-0.73828129 v -5.3671875 h 0.011719 l 2.4023438,6.18750004 c 0.046875,0.12890625 0.09375,0.2226562475 0.1992187,0.2226562475 0.1054688,0 0.1289063,-0.0820312475 0.1757813,-0.1874999975 L 6.9143828,-6.4929453 h 0.011719 v 5.71874999 c 0,0.3515625 -0.023437,0.46875 -0.7851563,0.46875 H 5.8948516 v 0.3046874975 c 0.375,-0.0351562475 1.0429687,-0.0351562475 1.4414062,-0.0351562475 0.3867188,0 1.0546875,0 1.4179688,0.0351562475 V -0.30544531 h -0.234375 c -0.7734375,0 -0.7851563,-0.1171875 -0.7851563,-0.46875 V -6.0241953 c 0,-0.3632813 0.011719,-0.46875 0.7851563,-0.46875 h 0.234375 V -6.8093516 H 7.0784453 c -0.2695312,0 -0.2695312,0.011719 -0.3398437,0.1992188 l -2.1796875,5.6015625 z m 7.8427739,4.078125 c 0.05859,-1.4882813 0.902343,-1.734375 1.242187,-1.734375 1.019531,0 1.125,1.3476562 1.125,1.734375 z m -0.01172,0.2109375 h 2.789062 c 0.210938,0 0.246094,0 0.246094,-0.2109375 0,-0.984375 -0.539062,-1.9570313 -1.78125,-1.9570313 -1.160156,0 -2.0742187,1.03125 -2.0742187,2.2734375 0,1.33593754 1.0429687,2.29687504 2.1914067,2.29687504 1.21875,0 1.664062,-1.1015625 1.664062,-1.28906254 0,-0.1054687 -0.08203,-0.1171875 -0.128906,-0.1171875 -0.09375,0 -0.117188,0.058594 -0.128906,0.140625 -0.351563,1.01953129 -1.253907,1.01953129 -1.347657,1.01953129 -0.503906,0 -0.902343,-0.29296875 -1.125,-0.66796875 C 10.233719,-1.2898203 10.233719,-1.9460703 10.233719,-2.2976328 Z m 0,0"
       style="fill:#000000;fill-opacity:1;fill-rule:nonzero;stroke:none"
       aria-label="Me"
       transform="matrix(1.3333333,0,0,1.3333333,425.87067,42.598667)" />
  </g>
</svg>
